<mxfile host="app.diagrams.net" agent="Mozilla/5.0 (X11; Linux x86_64; rv:130.0) Gecko/20100101 Firefox/130.0" version="24.7.16">
  <diagram id="R2lEEEUBdFMjLlhIrx00" name="Page-1">
    <mxGraphModel dx="1467" dy="1777" grid="1" gridSize="10" guides="1" tooltips="1" connect="1" arrows="1" fold="1" page="1" pageScale="1" pageWidth="850" pageHeight="1100" math="0" shadow="0" extFonts="Permanent Marker^https://fonts.googleapis.com/css?family=Permanent+Marker">
      <root>
        <mxCell id="0" />
        <mxCell id="1" parent="0" />
        <mxCell id="In9blpZ0Dfjtsndca9EC-59" style="edgeStyle=orthogonalEdgeStyle;rounded=0;orthogonalLoop=1;jettySize=auto;html=1;exitX=1;exitY=0.5;exitDx=0;exitDy=0;entryX=0;entryY=0.5;entryDx=0;entryDy=0;endArrow=none;endFill=0;" edge="1" parent="1" source="6JM7QLznLCo05XJ1KXPZ-7" target="6JM7QLznLCo05XJ1KXPZ-12">
          <mxGeometry relative="1" as="geometry" />
        </mxCell>
        <mxCell id="6JM7QLznLCo05XJ1KXPZ-7" value="&lt;font style=&quot;font-size: 24px;&quot;&gt;server_id&lt;br&gt;&lt;/font&gt;" style="ellipse;whiteSpace=wrap;html=1;dashed=1;" parent="1" vertex="1">
          <mxGeometry x="100" y="190" width="120" height="80" as="geometry" />
        </mxCell>
        <mxCell id="6JM7QLznLCo05XJ1KXPZ-17" style="edgeStyle=orthogonalEdgeStyle;rounded=0;orthogonalLoop=1;jettySize=auto;html=1;exitX=0.5;exitY=1;exitDx=0;exitDy=0;entryX=0.5;entryY=0;entryDx=0;entryDy=0;endArrow=none;endFill=0;" parent="1" source="6JM7QLznLCo05XJ1KXPZ-8" target="6JM7QLznLCo05XJ1KXPZ-12" edge="1">
          <mxGeometry relative="1" as="geometry" />
        </mxCell>
        <mxCell id="6JM7QLznLCo05XJ1KXPZ-8" value="&lt;u&gt;table_id&lt;/u&gt;" style="ellipse;whiteSpace=wrap;html=1;fontSize=24;" parent="1" vertex="1">
          <mxGeometry x="110" y="80" width="120" height="80" as="geometry" />
        </mxCell>
        <mxCell id="In9blpZ0Dfjtsndca9EC-58" style="edgeStyle=orthogonalEdgeStyle;rounded=0;orthogonalLoop=1;jettySize=auto;html=1;exitX=0.5;exitY=1;exitDx=0;exitDy=0;entryX=0.75;entryY=0;entryDx=0;entryDy=0;endArrow=none;endFill=0;" edge="1" parent="1" source="6JM7QLznLCo05XJ1KXPZ-9" target="6JM7QLznLCo05XJ1KXPZ-12">
          <mxGeometry relative="1" as="geometry" />
        </mxCell>
        <mxCell id="6JM7QLznLCo05XJ1KXPZ-9" value="&lt;div&gt;capacity&lt;/div&gt;" style="ellipse;whiteSpace=wrap;html=1;fontSize=24;" parent="1" vertex="1">
          <mxGeometry x="220" y="20" width="120" height="80" as="geometry" />
        </mxCell>
        <mxCell id="In9blpZ0Dfjtsndca9EC-57" style="edgeStyle=orthogonalEdgeStyle;rounded=0;orthogonalLoop=1;jettySize=auto;html=1;exitX=1;exitY=0.5;exitDx=0;exitDy=0;entryX=0.25;entryY=1;entryDx=0;entryDy=0;endArrow=none;endFill=0;" edge="1" parent="1" source="6JM7QLznLCo05XJ1KXPZ-12" target="In9blpZ0Dfjtsndca9EC-3">
          <mxGeometry relative="1" as="geometry">
            <Array as="points">
              <mxPoint x="425" y="180" />
              <mxPoint x="693" y="180" />
            </Array>
          </mxGeometry>
        </mxCell>
        <mxCell id="6JM7QLznLCo05XJ1KXPZ-12" value="tables" style="rounded=0;whiteSpace=wrap;html=1;fontSize=30;" parent="1" vertex="1">
          <mxGeometry x="255" y="170" width="170" height="80" as="geometry" />
        </mxCell>
        <mxCell id="In9blpZ0Dfjtsndca9EC-1" style="edgeStyle=orthogonalEdgeStyle;rounded=0;orthogonalLoop=1;jettySize=auto;html=1;exitX=0.5;exitY=0;exitDx=0;exitDy=0;entryX=0.5;entryY=1;entryDx=0;entryDy=0;endArrow=ERmany;endFill=0;startSize=100;endSize=30;" edge="1" parent="1" source="6JM7QLznLCo05XJ1KXPZ-14" target="6JM7QLznLCo05XJ1KXPZ-12">
          <mxGeometry relative="1" as="geometry" />
        </mxCell>
        <mxCell id="In9blpZ0Dfjtsndca9EC-45" style="edgeStyle=orthogonalEdgeStyle;rounded=0;orthogonalLoop=1;jettySize=auto;html=1;exitX=1;exitY=0.5;exitDx=0;exitDy=0;entryX=0.5;entryY=1;entryDx=0;entryDy=0;endArrow=ERmany;endFill=0;endSize=30;" edge="1" parent="1" source="6JM7QLznLCo05XJ1KXPZ-14" target="In9blpZ0Dfjtsndca9EC-3">
          <mxGeometry relative="1" as="geometry">
            <Array as="points">
              <mxPoint x="470" y="390" />
              <mxPoint x="470" y="310" />
              <mxPoint x="670" y="310" />
              <mxPoint x="670" y="200" />
              <mxPoint x="735" y="200" />
            </Array>
          </mxGeometry>
        </mxCell>
        <mxCell id="6JM7QLznLCo05XJ1KXPZ-14" value="&lt;div&gt;servers&lt;/div&gt;" style="rounded=0;whiteSpace=wrap;html=1;fontSize=30;" parent="1" vertex="1">
          <mxGeometry x="300" y="350" width="170" height="80" as="geometry" />
        </mxCell>
        <mxCell id="In9blpZ0Dfjtsndca9EC-56" style="edgeStyle=orthogonalEdgeStyle;rounded=0;orthogonalLoop=1;jettySize=auto;html=1;exitX=1;exitY=0.5;exitDx=0;exitDy=0;entryX=0;entryY=0.5;entryDx=0;entryDy=0;endArrow=none;endFill=0;" edge="1" parent="1" source="6JM7QLznLCo05XJ1KXPZ-20" target="6JM7QLznLCo05XJ1KXPZ-14">
          <mxGeometry relative="1" as="geometry" />
        </mxCell>
        <mxCell id="6JM7QLznLCo05XJ1KXPZ-20" value="&lt;u&gt;server_id&lt;/u&gt;" style="ellipse;whiteSpace=wrap;html=1;fontSize=24;" parent="1" vertex="1">
          <mxGeometry x="100" y="310" width="120" height="80" as="geometry" />
        </mxCell>
        <mxCell id="6JM7QLznLCo05XJ1KXPZ-25" style="edgeStyle=orthogonalEdgeStyle;rounded=0;orthogonalLoop=1;jettySize=auto;html=1;exitX=0.5;exitY=0;exitDx=0;exitDy=0;entryX=0.25;entryY=1;entryDx=0;entryDy=0;endArrow=none;endFill=0;" parent="1" source="6JM7QLznLCo05XJ1KXPZ-21" target="6JM7QLznLCo05XJ1KXPZ-14" edge="1">
          <mxGeometry relative="1" as="geometry">
            <Array as="points">
              <mxPoint x="250" y="410" />
              <mxPoint x="250" y="450" />
              <mxPoint x="343" y="450" />
            </Array>
          </mxGeometry>
        </mxCell>
        <mxCell id="6JM7QLznLCo05XJ1KXPZ-21" value="&lt;div&gt;first_name&lt;/div&gt;" style="ellipse;whiteSpace=wrap;html=1;fontSize=24;" parent="1" vertex="1">
          <mxGeometry x="80" y="410" width="120" height="80" as="geometry" />
        </mxCell>
        <mxCell id="In9blpZ0Dfjtsndca9EC-55" style="edgeStyle=orthogonalEdgeStyle;rounded=0;orthogonalLoop=1;jettySize=auto;html=1;exitX=1;exitY=0;exitDx=0;exitDy=0;entryX=0.75;entryY=1;entryDx=0;entryDy=0;endArrow=none;endFill=0;" edge="1" parent="1" source="6JM7QLznLCo05XJ1KXPZ-22" target="6JM7QLznLCo05XJ1KXPZ-14">
          <mxGeometry relative="1" as="geometry">
            <Array as="points">
              <mxPoint x="232" y="470" />
              <mxPoint x="428" y="470" />
            </Array>
          </mxGeometry>
        </mxCell>
        <mxCell id="6JM7QLznLCo05XJ1KXPZ-22" value="last_name" style="ellipse;whiteSpace=wrap;html=1;fontSize=24;" parent="1" vertex="1">
          <mxGeometry x="130" y="520" width="120" height="80" as="geometry" />
        </mxCell>
        <mxCell id="In9blpZ0Dfjtsndca9EC-54" style="edgeStyle=orthogonalEdgeStyle;rounded=0;orthogonalLoop=1;jettySize=auto;html=1;exitX=1;exitY=0;exitDx=0;exitDy=0;entryX=1;entryY=1;entryDx=0;entryDy=0;endArrow=none;endFill=0;" edge="1" parent="1" source="6JM7QLznLCo05XJ1KXPZ-23" target="6JM7QLznLCo05XJ1KXPZ-14">
          <mxGeometry relative="1" as="geometry">
            <Array as="points">
              <mxPoint x="362" y="500" />
              <mxPoint x="470" y="500" />
            </Array>
          </mxGeometry>
        </mxCell>
        <mxCell id="6JM7QLznLCo05XJ1KXPZ-23" value="availability" style="ellipse;whiteSpace=wrap;html=1;fontSize=24;" parent="1" vertex="1">
          <mxGeometry x="260" y="520" width="120" height="80" as="geometry" />
        </mxCell>
        <mxCell id="In9blpZ0Dfjtsndca9EC-29" style="edgeStyle=orthogonalEdgeStyle;rounded=0;orthogonalLoop=1;jettySize=auto;html=1;exitX=1;exitY=0;exitDx=0;exitDy=0;entryX=0;entryY=0.5;entryDx=0;entryDy=0;endArrow=none;endFill=0;" edge="1" parent="1" source="In9blpZ0Dfjtsndca9EC-2" target="In9blpZ0Dfjtsndca9EC-27">
          <mxGeometry relative="1" as="geometry" />
        </mxCell>
        <mxCell id="In9blpZ0Dfjtsndca9EC-43" style="edgeStyle=orthogonalEdgeStyle;rounded=0;orthogonalLoop=1;jettySize=auto;html=1;exitX=0.5;exitY=0;exitDx=0;exitDy=0;entryX=0.75;entryY=1;entryDx=0;entryDy=0;endArrow=none;endFill=0;startArrow=ERmany;startFill=0;endSize=30;startSize=30;" edge="1" parent="1" source="In9blpZ0Dfjtsndca9EC-2" target="In9blpZ0Dfjtsndca9EC-3">
          <mxGeometry relative="1" as="geometry">
            <Array as="points">
              <mxPoint x="905" y="300" />
              <mxPoint x="715" y="300" />
              <mxPoint x="715" y="230" />
              <mxPoint x="777" y="230" />
            </Array>
          </mxGeometry>
        </mxCell>
        <mxCell id="In9blpZ0Dfjtsndca9EC-2" value="&lt;div&gt;order_details&lt;/div&gt;" style="rounded=0;whiteSpace=wrap;html=1;fontSize=30;" vertex="1" parent="1">
          <mxGeometry x="820" y="340" width="170" height="80" as="geometry" />
        </mxCell>
        <mxCell id="In9blpZ0Dfjtsndca9EC-3" value="&lt;div&gt;food_orders&lt;/div&gt;" style="rounded=0;whiteSpace=wrap;html=1;fontSize=30;" vertex="1" parent="1">
          <mxGeometry x="650" y="50" width="170" height="80" as="geometry" />
        </mxCell>
        <mxCell id="In9blpZ0Dfjtsndca9EC-20" style="edgeStyle=orthogonalEdgeStyle;rounded=0;orthogonalLoop=1;jettySize=auto;html=1;exitX=0.5;exitY=1;exitDx=0;exitDy=0;entryX=0.25;entryY=0;entryDx=0;entryDy=0;endArrow=none;endFill=0;" edge="1" parent="1" source="In9blpZ0Dfjtsndca9EC-4" target="In9blpZ0Dfjtsndca9EC-3">
          <mxGeometry relative="1" as="geometry">
            <Array as="points">
              <mxPoint x="670" y="-10" />
              <mxPoint x="670" y="20" />
              <mxPoint x="693" y="20" />
            </Array>
          </mxGeometry>
        </mxCell>
        <mxCell id="In9blpZ0Dfjtsndca9EC-4" value="time" style="ellipse;whiteSpace=wrap;html=1;fontSize=24;" vertex="1" parent="1">
          <mxGeometry x="590" y="-90" width="120" height="80" as="geometry" />
        </mxCell>
        <mxCell id="In9blpZ0Dfjtsndca9EC-13" style="edgeStyle=orthogonalEdgeStyle;rounded=0;orthogonalLoop=1;jettySize=auto;html=1;exitX=1;exitY=0.5;exitDx=0;exitDy=0;entryX=0;entryY=1;entryDx=0;entryDy=0;endArrow=none;endFill=0;" edge="1" parent="1" source="In9blpZ0Dfjtsndca9EC-5" target="In9blpZ0Dfjtsndca9EC-3">
          <mxGeometry relative="1" as="geometry" />
        </mxCell>
        <mxCell id="In9blpZ0Dfjtsndca9EC-5" value="&lt;u&gt;order_id&lt;/u&gt;" style="ellipse;whiteSpace=wrap;html=1;fontSize=24;" vertex="1" parent="1">
          <mxGeometry x="450" y="90" width="120" height="80" as="geometry" />
        </mxCell>
        <mxCell id="In9blpZ0Dfjtsndca9EC-16" style="edgeStyle=orthogonalEdgeStyle;rounded=0;orthogonalLoop=1;jettySize=auto;html=1;exitX=1;exitY=0.5;exitDx=0;exitDy=0;entryX=0;entryY=0.75;entryDx=0;entryDy=0;endArrow=none;endFill=0;" edge="1" parent="1" source="In9blpZ0Dfjtsndca9EC-6" target="In9blpZ0Dfjtsndca9EC-3">
          <mxGeometry relative="1" as="geometry" />
        </mxCell>
        <mxCell id="In9blpZ0Dfjtsndca9EC-6" value="server_id" style="ellipse;whiteSpace=wrap;html=1;fontSize=24;dashed=1;" vertex="1" parent="1">
          <mxGeometry x="450" width="120" height="80" as="geometry" />
        </mxCell>
        <mxCell id="In9blpZ0Dfjtsndca9EC-17" style="edgeStyle=orthogonalEdgeStyle;rounded=0;orthogonalLoop=1;jettySize=auto;html=1;exitX=0;exitY=1;exitDx=0;exitDy=0;entryX=1;entryY=0;entryDx=0;entryDy=0;endArrow=none;endFill=0;" edge="1" parent="1" source="In9blpZ0Dfjtsndca9EC-7" target="In9blpZ0Dfjtsndca9EC-3">
          <mxGeometry relative="1" as="geometry">
            <Array as="points">
              <mxPoint x="878" y="20" />
              <mxPoint x="820" y="20" />
            </Array>
          </mxGeometry>
        </mxCell>
        <mxCell id="In9blpZ0Dfjtsndca9EC-7" value="time_ completed" style="ellipse;whiteSpace=wrap;html=1;fontSize=24;" vertex="1" parent="1">
          <mxGeometry x="870" y="-90" width="120" height="80" as="geometry" />
        </mxCell>
        <mxCell id="In9blpZ0Dfjtsndca9EC-14" style="edgeStyle=orthogonalEdgeStyle;rounded=0;orthogonalLoop=1;jettySize=auto;html=1;exitX=0;exitY=0.5;exitDx=0;exitDy=0;entryX=1;entryY=1;entryDx=0;entryDy=0;endArrow=none;endFill=0;startArrow=ERmany;startFill=0;endSize=50;startSize=15;" edge="1" parent="1" source="In9blpZ0Dfjtsndca9EC-8" target="In9blpZ0Dfjtsndca9EC-3">
          <mxGeometry relative="1" as="geometry" />
        </mxCell>
        <mxCell id="In9blpZ0Dfjtsndca9EC-8" value="&lt;div&gt;special_&lt;/div&gt;&lt;div&gt;instructions&lt;br&gt;&lt;/div&gt;" style="ellipse;whiteSpace=wrap;html=1;fontSize=24;" vertex="1" parent="1">
          <mxGeometry x="880" y="110" width="120" height="80" as="geometry" />
        </mxCell>
        <mxCell id="In9blpZ0Dfjtsndca9EC-18" style="edgeStyle=orthogonalEdgeStyle;rounded=0;orthogonalLoop=1;jettySize=auto;html=1;exitX=0.5;exitY=1;exitDx=0;exitDy=0;entryX=0.75;entryY=0;entryDx=0;entryDy=0;endArrow=none;endFill=0;" edge="1" parent="1" source="In9blpZ0Dfjtsndca9EC-9" target="In9blpZ0Dfjtsndca9EC-3">
          <mxGeometry relative="1" as="geometry" />
        </mxCell>
        <mxCell id="In9blpZ0Dfjtsndca9EC-9" value="&lt;div&gt;time_&lt;/div&gt;&lt;div&gt;ordered&lt;/div&gt;" style="ellipse;whiteSpace=wrap;html=1;fontSize=24;" vertex="1" parent="1">
          <mxGeometry x="720" y="-90" width="120" height="80" as="geometry" />
        </mxCell>
        <mxCell id="In9blpZ0Dfjtsndca9EC-19" style="edgeStyle=orthogonalEdgeStyle;rounded=0;orthogonalLoop=1;jettySize=auto;html=1;exitX=1;exitY=1;exitDx=0;exitDy=0;entryX=0;entryY=0;entryDx=0;entryDy=0;endArrow=none;endFill=0;" edge="1" parent="1" source="In9blpZ0Dfjtsndca9EC-10" target="In9blpZ0Dfjtsndca9EC-3">
          <mxGeometry relative="1" as="geometry">
            <Array as="points">
              <mxPoint x="572" y="20" />
              <mxPoint x="650" y="20" />
            </Array>
          </mxGeometry>
        </mxCell>
        <mxCell id="In9blpZ0Dfjtsndca9EC-10" value="table_id" style="ellipse;whiteSpace=wrap;html=1;fontSize=24;dashed=1;" vertex="1" parent="1">
          <mxGeometry x="450" y="-90" width="120" height="80" as="geometry" />
        </mxCell>
        <mxCell id="In9blpZ0Dfjtsndca9EC-15" style="edgeStyle=orthogonalEdgeStyle;rounded=0;orthogonalLoop=1;jettySize=auto;html=1;exitX=0;exitY=0.5;exitDx=0;exitDy=0;entryX=1;entryY=0.75;entryDx=0;entryDy=0;endArrow=none;endFill=0;" edge="1" parent="1" source="In9blpZ0Dfjtsndca9EC-11" target="In9blpZ0Dfjtsndca9EC-3">
          <mxGeometry relative="1" as="geometry" />
        </mxCell>
        <mxCell id="In9blpZ0Dfjtsndca9EC-11" value="status" style="ellipse;whiteSpace=wrap;html=1;fontSize=24;" vertex="1" parent="1">
          <mxGeometry x="880" y="20" width="120" height="80" as="geometry" />
        </mxCell>
        <mxCell id="In9blpZ0Dfjtsndca9EC-50" style="edgeStyle=orthogonalEdgeStyle;rounded=0;orthogonalLoop=1;jettySize=auto;html=1;exitX=0.5;exitY=0;exitDx=0;exitDy=0;entryX=0.25;entryY=1;entryDx=0;entryDy=0;endArrow=none;endFill=0;" edge="1" parent="1" source="In9blpZ0Dfjtsndca9EC-23" target="In9blpZ0Dfjtsndca9EC-2">
          <mxGeometry relative="1" as="geometry" />
        </mxCell>
        <mxCell id="In9blpZ0Dfjtsndca9EC-23" value="&lt;div&gt;&lt;u&gt;order_&lt;/u&gt;&lt;/div&gt;&lt;div&gt;&lt;u&gt;details_id&lt;/u&gt;&lt;/div&gt;" style="ellipse;whiteSpace=wrap;html=1;fontSize=24;" vertex="1" parent="1">
          <mxGeometry x="840" y="490" width="120" height="80" as="geometry" />
        </mxCell>
        <mxCell id="In9blpZ0Dfjtsndca9EC-49" style="edgeStyle=orthogonalEdgeStyle;rounded=0;orthogonalLoop=1;jettySize=auto;html=1;exitX=0;exitY=0;exitDx=0;exitDy=0;entryX=0.5;entryY=1;entryDx=0;entryDy=0;endArrow=none;endFill=0;" edge="1" parent="1" source="In9blpZ0Dfjtsndca9EC-24" target="In9blpZ0Dfjtsndca9EC-2">
          <mxGeometry relative="1" as="geometry">
            <Array as="points">
              <mxPoint x="968" y="470" />
              <mxPoint x="905" y="470" />
            </Array>
          </mxGeometry>
        </mxCell>
        <mxCell id="In9blpZ0Dfjtsndca9EC-24" value="order_id" style="ellipse;whiteSpace=wrap;html=1;fontSize=24;dashed=1;" vertex="1" parent="1">
          <mxGeometry x="980" y="470" width="120" height="80" as="geometry" />
        </mxCell>
        <mxCell id="In9blpZ0Dfjtsndca9EC-31" style="edgeStyle=orthogonalEdgeStyle;rounded=0;orthogonalLoop=1;jettySize=auto;html=1;exitX=0.5;exitY=0;exitDx=0;exitDy=0;entryX=0.75;entryY=1;entryDx=0;entryDy=0;endArrow=ERmany;endFill=0;startSize=15;endSize=15;" edge="1" parent="1" source="In9blpZ0Dfjtsndca9EC-25" target="In9blpZ0Dfjtsndca9EC-2">
          <mxGeometry relative="1" as="geometry">
            <Array as="points">
              <mxPoint x="1025" y="390" />
              <mxPoint x="1025" y="450" />
              <mxPoint x="948" y="450" />
            </Array>
          </mxGeometry>
        </mxCell>
        <mxCell id="In9blpZ0Dfjtsndca9EC-25" value="item_id" style="ellipse;whiteSpace=wrap;html=1;fontSize=24;dashed=1;" vertex="1" parent="1">
          <mxGeometry x="1050" y="390" width="120" height="80" as="geometry" />
        </mxCell>
        <mxCell id="In9blpZ0Dfjtsndca9EC-30" style="edgeStyle=orthogonalEdgeStyle;rounded=0;orthogonalLoop=1;jettySize=auto;html=1;exitX=0;exitY=0;exitDx=0;exitDy=0;entryX=1;entryY=0.5;entryDx=0;entryDy=0;endArrow=none;endFill=0;" edge="1" parent="1" source="In9blpZ0Dfjtsndca9EC-26" target="In9blpZ0Dfjtsndca9EC-2">
          <mxGeometry relative="1" as="geometry" />
        </mxCell>
        <mxCell id="In9blpZ0Dfjtsndca9EC-26" value="quantity" style="ellipse;whiteSpace=wrap;html=1;fontSize=24;" vertex="1" parent="1">
          <mxGeometry x="1050" y="290" width="120" height="80" as="geometry" />
        </mxCell>
        <mxCell id="In9blpZ0Dfjtsndca9EC-27" value="&lt;div&gt;total_item_&lt;/div&gt;&lt;div&gt;price&lt;br&gt;&lt;/div&gt;" style="ellipse;whiteSpace=wrap;html=1;fontSize=24;" vertex="1" parent="1">
          <mxGeometry x="970" y="200" width="120" height="80" as="geometry" />
        </mxCell>
        <mxCell id="In9blpZ0Dfjtsndca9EC-52" style="edgeStyle=orthogonalEdgeStyle;rounded=0;orthogonalLoop=1;jettySize=auto;html=1;exitX=0.75;exitY=0;exitDx=0;exitDy=0;entryX=0;entryY=0.75;entryDx=0;entryDy=0;endArrow=ERmany;endFill=0;endSize=30;" edge="1" parent="1" source="In9blpZ0Dfjtsndca9EC-28" target="In9blpZ0Dfjtsndca9EC-2">
          <mxGeometry relative="1" as="geometry">
            <Array as="points">
              <mxPoint x="650" y="550" />
              <mxPoint x="650" y="510" />
              <mxPoint x="780" y="510" />
              <mxPoint x="780" y="400" />
            </Array>
          </mxGeometry>
        </mxCell>
        <mxCell id="In9blpZ0Dfjtsndca9EC-28" value="&lt;div&gt;menu_items&lt;/div&gt;" style="rounded=0;whiteSpace=wrap;html=1;fontSize=30;" vertex="1" parent="1">
          <mxGeometry x="520" y="550" width="170" height="80" as="geometry" />
        </mxCell>
        <mxCell id="In9blpZ0Dfjtsndca9EC-39" style="edgeStyle=orthogonalEdgeStyle;rounded=0;orthogonalLoop=1;jettySize=auto;html=1;exitX=0.5;exitY=0;exitDx=0;exitDy=0;entryX=0.5;entryY=1;entryDx=0;entryDy=0;endArrow=none;endFill=0;" edge="1" parent="1" source="In9blpZ0Dfjtsndca9EC-34" target="In9blpZ0Dfjtsndca9EC-28">
          <mxGeometry relative="1" as="geometry" />
        </mxCell>
        <mxCell id="In9blpZ0Dfjtsndca9EC-34" value="unit_price" style="ellipse;whiteSpace=wrap;html=1;fontSize=24;" vertex="1" parent="1">
          <mxGeometry x="520" y="650" width="120" height="80" as="geometry" />
        </mxCell>
        <mxCell id="In9blpZ0Dfjtsndca9EC-38" style="edgeStyle=orthogonalEdgeStyle;rounded=0;orthogonalLoop=1;jettySize=auto;html=1;exitX=0.5;exitY=0;exitDx=0;exitDy=0;entryX=1;entryY=1;entryDx=0;entryDy=0;endArrow=none;endFill=0;" edge="1" parent="1" source="In9blpZ0Dfjtsndca9EC-35" target="In9blpZ0Dfjtsndca9EC-28">
          <mxGeometry relative="1" as="geometry" />
        </mxCell>
        <mxCell id="In9blpZ0Dfjtsndca9EC-35" value="item_name" style="ellipse;whiteSpace=wrap;html=1;fontSize=24;" vertex="1" parent="1">
          <mxGeometry x="660" y="650" width="120" height="80" as="geometry" />
        </mxCell>
        <mxCell id="In9blpZ0Dfjtsndca9EC-37" style="edgeStyle=orthogonalEdgeStyle;rounded=0;orthogonalLoop=1;jettySize=auto;html=1;exitX=0;exitY=0.5;exitDx=0;exitDy=0;entryX=1;entryY=0.5;entryDx=0;entryDy=0;endArrow=none;endFill=0;" edge="1" parent="1" source="In9blpZ0Dfjtsndca9EC-36" target="In9blpZ0Dfjtsndca9EC-28">
          <mxGeometry relative="1" as="geometry" />
        </mxCell>
        <mxCell id="In9blpZ0Dfjtsndca9EC-36" value="&lt;span&gt;item_id&lt;/span&gt;" style="ellipse;whiteSpace=wrap;html=1;fontSize=24;fontStyle=4" vertex="1" parent="1">
          <mxGeometry x="720" y="550" width="120" height="80" as="geometry" />
        </mxCell>
      </root>
    </mxGraphModel>
  </diagram>
</mxfile>
